{"title":"Escape from New York(1981)MPEG-4[DaScubaDude]","uid":14236984,"size":991480815,"categoryP":"video","categoryS":"movies","magnet":"?xt=urn:btih:7cef01d360d508bc662bb2b76a3d62d5604c254c&amp;dn=Escape+from+New+York%281981%29MPEG-4%5BDaScubaDude%5D&amp;tr=udp%3A%2F%2Ftracker.leechers-paradise.org%3A6969&amp;tr=udp%3A%2F%2Fzer0day.ch%3A1337&amp;tr=udp%3A%2F%2Fopen.demonii.com%3A1337&amp;tr=udp%3A%2F%2Ftracker.coppersurfer.tk%3A6969&amp;tr=udp%3A%2F%2Fexodus.desync.com%3A6969","seeders":0,"leechers":0,"uploader":"dascuba","files":1,"time":1460100235,"description":"Escape from New York (1981)\r\nR | 1h 39min | Action, Sci-Fi | 10 July 1981 (USA)\r\nIn 1997, when the US President crashes into Manhattan, now a giant maximum security prison, a convicted bank robber is sent in to rescue him.\r\nDirector: John Carpenter\r\nWriters: John Carpenter, Nick Castle\r\nStars: Kurt Russell, Lee Van Cleef, Ernest Borgnine |\r\n\r\nGeneral\r\nComplete name                            : Escape from NYESCAPE_FROM_NY_169_Title1.mp4\r\nFormat                                   : MPEG-4\r\nFormat profile                           : Base Media\r\nCodec ID                                 : isom\r\nFile size                                : 946 MiB\r\nDuration                                 : 1h 39mn\r\nOverall bit rate                         : 1 335 Kbps\r\nMovie name                               : ESCAPE_FROM_NY_169\r\nGenre                                    : Science_Fiction\r\nWriting application                      : Lavf54.6.100\r\n\r\nVideo\r\nID                                       : 1\r\nFormat                                   : AVC\r\nFormat/Info                              : Advanced Video Codec\r\nFormat profile                           :   \r\nFormat settings, CABAC                   : No\r\nFormat settings, ReFrames                : 6 frames\r\nCodec ID                                 : avc1\r\nCodec ID/Info                            : Advanced Video Coding\r\nDuration                                 : 1h 39mn\r\nBit rate                                 : 1 200 Kbps\r\nWidth                                    : 720 pixels\r\nHeight                                   : 404 pixels\r\nDisplay aspect ratio                     : 16:9\r\nFrame rate mode                          : Constant\r\nFrame rate                               : 29.970 fps\r\nColor space                              : YUV\r\nChroma subsampling                       : 4:2:0\r\nBit depth                                : 8 bits\r\nScan type                                : Progressive\r\nBits/(Pixel*Frame)                       : 0.138\r\nStream size                              : 850 MiB (90%)\r\n\r\nAudio\r\nID                                       : 2\r\nFormat                                   : AAC\r\nFormat/Info                              : Advanced Audio Codec\r\nFormat profile                           : LC\r\nCodec ID                                 : 40\r\nDuration                                 : 1h 39mn\r\nBit rate mode                            : Constant\r\nBit rate                                 : 128 Kbps\r\nChannel(s)                               : 2 channels\r\nChannel positions                        : Front: L R\r\nSampling rate                            : 44.1 KHz\r\nCompression mode                         : Lossy\r\nStream size                              : 90.6 MiB (10%)","torrent":{"xt":"urn:btih:7cef01d360d508bc662bb2b76a3d62d5604c254c","amp;dn":"Escape+from+New+York%281981%29MPEG-4%5BDaScubaDude%5D","amp;tr":["udp%3A%2F%2Ftracker.leechers-paradise.org%3A6969","udp%3A%2F%2Fzer0day.ch%3A1337","udp%3A%2F%2Fopen.demonii.com%3A1337","udp%3A%2F%2Ftracker.coppersurfer.tk%3A6969","udp%3A%2F%2Fexodus.desync.com%3A6969"],"infoHash":"7cef01d360d508bc662bb2b76a3d62d5604c254c","infoHashBuffer":{"type":"Buffer","data":[124,239,1,211,96,213,8,188,102,43,178,183,106,61,98,213,96,76,37,76]},"announce":[],"urlList":[]}}